<svg version="1.1" id="Layer_1" xmlns="http://www.w3.org/2000/svg" xmlns:xlink="http://www.w3.org/1999/xlink" viewBox="0 0 511.672 511.672" xml:space="preserve" fill="#000000"><g id="SVGRepo_bgCarrier" stroke-width="0"></g><g id="SVGRepo_tracerCarrier" stroke-linecap="round" stroke-linejoin="round"></g><g id="SVGRepo_iconCarrier"> <path style="fill:#CCD1D9;" d="M396.992,286.474l-2.187,7.776c-10.415,36.929-27.919,61.647-53.513,75.545 c-17.348,9.432-36.211,12.523-53.497,13.616l0.031-264.081c19.628-11.336,31.964-32.354,31.964-55.371 C319.79,28.7,291.105,0,255.831,0c-35.258,0-63.959,28.7-63.959,63.959c0,23.016,12.352,44.065,31.979,55.386l0.031,263.956 c-17.301-1.171-36.164-4.356-53.606-13.882c-25.608-13.959-43.082-38.553-53.418-75.17l-2.187-7.776H74.526l0.094,10.759 c0.921,98.202,46.205,130.51,142.081,176.277c21.595,10.306,29.356,20.939,30.074,21.955l8.885,16.208l9.228-16.208 c0.656-0.938,8.4-11.618,30.074-21.955c95.893-45.768,141.16-78.075,142.082-176.277l0.109-10.759L396.992,286.474L396.992,286.474z M255.832,85.275c-11.773,0-21.314-9.541-21.314-21.314c0-11.774,9.541-21.33,21.314-21.33s21.314,9.556,21.314,21.33 C277.147,75.733,267.606,85.275,255.832,85.275z"></path> <g> <rect x="138.576" y="169.217" style="fill:#E6E9ED;" width="234.51" height="42.645"></rect> <path style="fill:#E6E9ED;" d="M447.115,240.347l-7.494-21.627l-11.727,19.659c-0.234,0.375-23.08,38.444-62.82,83.696 l-15.537,17.708h59.572l28.81,57.525l8.963-21.455c5.605-13.413,9.384-28.185,11.212-43.909 C461.545,302.12,457.859,271.296,447.115,240.347z"></path> <path style="fill:#E6E9ED;" d="M83.771,238.379L72.06,218.72l-7.511,21.627c-10.743,30.949-14.428,61.773-10.962,91.598 c1.827,15.725,5.59,30.496,11.196,43.909l8.963,21.455l28.81-57.525h59.571l-15.537-17.708 C106.959,276.948,84.005,238.754,83.771,238.379z"></path> </g> </g></svg>